G04 ================== begin FILE IDENTIFICATION RECORD ==================*
G04 Layout Name:  sophum_pro_power_v1.brd*
G04 Film Name:    SILKTOP*
G04 File Format:  Gerber RS274X*
G04 File Origin:  Cadence Allegro 16.6-2015-S066*
G04 Origin Date:  Mon Jul 20 15:27:08 2020*
G04 *
G04 Layer:  PACKAGE GEOMETRY/SILKSCREEN_TOP*
G04 Layer:  BOARD GEOMETRY/SILKSCREEN_TOP*
G04 Layer:  BOARD GEOMETRY/OUTLINE*
G04 *
G04 Offset:    (0.00 0.00)*
G04 Mirror:    No*
G04 Mode:      Positive*
G04 Rotation:  0*
G04 FullContactRelief:  No*
G04 UndefLineWidth:     6.00*
G04 ================== end FILE IDENTIFICATION RECORD ====================*
%FSLAX55Y55*MOIN*%
%IR0*IPPOS*OFA0.00000B0.00000*MIA0B0*SFA1.00000B1.00000*%
%ADD10C,.006*%
%ADD11C,.00591*%
G75*
%LPD*%
G75*
G54D10*
G01X2500Y0D02*
X197500D01*
G03X200000Y2500I0J2500D01*
G01Y197500D01*
G03X197500Y200000I-2500J0D01*
G01X2500D01*
G03X0Y197500I0J-2500D01*
G01Y2500D01*
G03X2500Y0I2500J0D01*
G54D11*
G01X47282Y80280D02*
X21298D01*
Y30280D01*
X47282D01*
Y80280D01*
G01X7571Y25876D02*
Y5404D01*
X47729D01*
Y25876D01*
X7571D01*
G01X21065Y126410D02*
G03I-394J0D01*
G01X19097Y125623D02*
Y135859D01*
X671D01*
Y102001D01*
X19097D01*
Y112237D01*
G01X10104Y154158D02*
Y136442D01*
X656D01*
Y154158D01*
X10104D01*
G01X80831Y22676D02*
X82406D01*
Y21101D01*
G01X70594D02*
Y22676D01*
X72169D01*
G01Y10864D02*
X70594D01*
Y12439D01*
G01X82406D02*
Y10864D01*
X80831D01*
G01X83980Y11652D02*
G03I-393J0D01*
G01X48856Y31264D02*
G03I-393J0D01*
G01X59390Y18801D02*
Y23919D01*
X53090D01*
Y18801D01*
G01Y16439D02*
Y11321D01*
X59390D01*
Y16439D01*
G01X80519Y8020D02*
X75401D01*
Y1720D01*
X80519D01*
G01X82881D02*
X87999D01*
Y8020D01*
X82881D01*
G01X79899Y49240D02*
X74781D01*
Y42940D01*
X79899D01*
G01X82261D02*
X87379D01*
Y49240D01*
X82261D01*
G01X67266Y14077D02*
Y11321D01*
X63328D01*
Y14077D01*
G01X67266Y15651D02*
Y18407D01*
X63328D01*
Y15651D01*
G01X59390D02*
Y18407D01*
X63328D01*
Y15651D01*
G01X59390Y14077D02*
Y11321D01*
X63328D01*
Y14077D01*
G01X90036Y11236D02*
X86492D01*
Y26984D01*
X90036D01*
G01X99484D02*
X103028D01*
Y11236D01*
X99484D01*
G01X81757Y37259D02*
X84513D01*
Y33321D01*
X81757D01*
G01X80183Y37259D02*
X77427D01*
Y33321D01*
X80183D01*
G01X81339Y28983D02*
Y26227D01*
X77401D01*
Y28983D01*
G01X81339Y30557D02*
Y33313D01*
X77401D01*
Y30557D01*
G01X73463D02*
Y33313D01*
X77401D01*
Y30557D01*
G01X73463Y28983D02*
Y26227D01*
X77401D01*
Y28983D01*
G01X81081Y111396D02*
X82656D01*
Y109821D01*
G01X70844D02*
Y111396D01*
X72419D01*
G01Y99584D02*
X70844D01*
Y101159D01*
G01X82656D02*
Y99584D01*
X81081D01*
G01X84230Y100372D02*
G03I-393J0D01*
G01X80941Y67016D02*
X82516D01*
Y65441D01*
G01X70704D02*
Y67016D01*
X72279D01*
G01Y55204D02*
X70704D01*
Y56779D01*
G01X82516D02*
Y55204D01*
X80941D01*
G01X84090Y55992D02*
G03I-393J0D01*
G01X59601Y62697D02*
Y67815D01*
X53301D01*
Y62697D01*
G01Y60335D02*
Y55217D01*
X59601D01*
Y60335D01*
G01X59170Y107221D02*
Y112339D01*
X52870D01*
Y107221D01*
G01Y104859D02*
Y99741D01*
X59170D01*
Y104859D01*
G01X79629Y94330D02*
X74511D01*
Y88030D01*
X79629D01*
G01X81991D02*
X87109D01*
Y94330D01*
X81991D01*
G01X79869Y138740D02*
X74751D01*
Y132440D01*
X79869D01*
G01X82231D02*
X87349D01*
Y138740D01*
X82231D01*
G01X136029Y98753D02*
Y95997D01*
X132091D01*
Y98753D01*
G01X136029Y100327D02*
Y103083D01*
X132091D01*
Y100327D01*
G01X135959Y75603D02*
Y72847D01*
X132021D01*
Y75603D01*
G01X135959Y77177D02*
Y79933D01*
X132021D01*
Y77177D01*
G01X59601Y59547D02*
Y62303D01*
X63539D01*
Y59547D01*
G01X59601Y57973D02*
Y55217D01*
X63539D01*
Y57973D01*
G01X59170Y104071D02*
Y106827D01*
X63108D01*
Y104071D01*
G01X59170Y102497D02*
Y99741D01*
X63108D01*
Y102497D01*
G01X136519Y120646D02*
Y117890D01*
X132581D01*
Y120646D01*
G01X136519Y122220D02*
Y124976D01*
X132581D01*
Y122220D01*
G01X67477Y57973D02*
Y55217D01*
X63539D01*
Y57973D01*
G01X67477Y59547D02*
Y62303D01*
X63539D01*
Y59547D01*
G01X67046Y102497D02*
Y99741D01*
X63108D01*
Y102497D01*
G01X67046Y104071D02*
Y106827D01*
X63108D01*
Y104071D01*
G01X90026Y52076D02*
X86482D01*
Y67824D01*
X90026D01*
G01X99474D02*
X103018D01*
Y52076D01*
X99474D01*
G01X89936Y97386D02*
X86392D01*
Y113134D01*
X89936D01*
G01X99384D02*
X102928D01*
Y97386D01*
X99384D01*
G01X84417Y81749D02*
X87173D01*
Y77811D01*
X84417D01*
G01X82843Y81749D02*
X80087D01*
Y77811D01*
X82843D01*
G01X82737Y126059D02*
X85493D01*
Y122121D01*
X82737D01*
G01X81163Y126059D02*
X78407D01*
Y122121D01*
X81163D01*
G01X84019Y73453D02*
Y70697D01*
X80081D01*
Y73453D01*
G01X84019Y75027D02*
Y77783D01*
X80081D01*
Y75027D01*
G01X82197Y117683D02*
Y114927D01*
X78259D01*
Y117683D01*
G01X82197Y119257D02*
Y122013D01*
X78259D01*
Y119257D01*
G01X76143Y75027D02*
Y77783D01*
X80081D01*
Y75027D01*
G01X76143Y73453D02*
Y70697D01*
X80081D01*
Y73453D01*
G01X74321Y119257D02*
Y122013D01*
X78259D01*
Y119257D01*
G01X74321Y117683D02*
Y114927D01*
X78259D01*
Y117683D01*
G01X81211Y156376D02*
X82786D01*
Y154801D01*
G01X70974D02*
Y156376D01*
X72549D01*
G01Y144564D02*
X70974D01*
Y146139D01*
G01X82786D02*
Y144564D01*
X81211D01*
G01X84360Y145352D02*
G03I-393J0D01*
G01X59790Y151591D02*
Y156709D01*
X53490D01*
Y151591D01*
G01Y149229D02*
Y144111D01*
X59790D01*
Y149229D01*
G01Y148441D02*
Y151197D01*
X63728D01*
Y148441D01*
G01X59790Y146867D02*
Y144111D01*
X63728D01*
Y146867D01*
G01X67666D02*
Y144111D01*
X63728D01*
Y146867D01*
G01X67666Y148441D02*
Y151197D01*
X63728D01*
Y148441D01*
G01X90516Y141256D02*
X86972D01*
Y157004D01*
X90516D01*
G01X99964D02*
X103508D01*
Y141256D01*
X99964D01*
G01X84327Y171259D02*
X87083D01*
Y167321D01*
X84327D01*
G01X82753Y171259D02*
X79997D01*
Y167321D01*
X82753D01*
G01X76051Y164537D02*
Y167293D01*
X79989D01*
Y164537D01*
G01X76051Y162963D02*
Y160207D01*
X79989D01*
Y162963D01*
G01X83927D02*
Y160207D01*
X79989D01*
Y162963D01*
G01X83927Y164537D02*
Y167293D01*
X79989D01*
Y164537D01*
G01X146591Y100720D02*
Y93634D01*
X144623D01*
Y100720D01*
X146591D01*
G01X141473Y103476D02*
G03I-394J0D01*
G01X146201Y77570D02*
Y70484D01*
X144233D01*
Y77570D01*
X146201D01*
G01X141083Y80326D02*
G03I-394J0D01*
G01X146901Y122613D02*
Y115527D01*
X144933D01*
Y122613D01*
X146901D01*
G01X141783Y125369D02*
G03I-394J0D01*
G01X158909Y72453D02*
Y67335D01*
X165209D01*
Y72453D01*
G01Y74815D02*
Y79933D01*
X158909D01*
Y74815D01*
G01X159499Y117496D02*
Y112378D01*
X165799D01*
Y117496D01*
G01Y119858D02*
Y124976D01*
X159499D01*
Y119858D01*
G01X159039Y95603D02*
Y90485D01*
X165339D01*
Y95603D01*
G01Y97965D02*
Y103083D01*
X159039D01*
Y97965D01*
G01X159499Y120646D02*
Y117890D01*
X155561D01*
Y120646D01*
G01X159499Y122220D02*
Y124976D01*
X155561D01*
Y122220D01*
G01X159039Y98753D02*
Y95997D01*
X155101D01*
Y98753D01*
G01X159039Y100327D02*
Y103083D01*
X155101D01*
Y100327D01*
G01X158909Y75603D02*
Y72847D01*
X154971D01*
Y75603D01*
G01X158909Y77177D02*
Y79933D01*
X154971D01*
Y77177D01*
M02*
