M48
INCH,LZ
T01C.01
T02C.03937
T03C.07087
T04C.07874
;LEADER: 12 
;HEADER: 
;CODE  : ASCII 
;FILE  : sophum_pro_power_v1-1-2.drl for board #Taaaadn16672.tmp ... layers TOP and BOTTOM
;T01 Holesize 1. = 10.000000 Tolerance = +0.000000/-0.000000 PLATED MILS Quantity = 125
;T02 Holesize 2. = 39.370000 Tolerance = +0.000000/-0.000000 PLATED MILS Quantity = 2
;T03 Holesize 3. = 70.870000 Tolerance = +0.000000/-0.000000 PLATED MILS Quantity = 3
;T04 Holesize 4. = 78.740000 Tolerance = +0.000000/-0.000000 PLATED MILS Quantity = 2
%
G90
T01
X00653Y000958
X007429Y001458
X007431Y0019
X007457Y000487
X00765Y001677
X007868Y001463
X007868Y0019
X0089Y00041
X0089Y000725
X0094Y00041
X0094Y000725
X0099Y00041
X0099Y000725
X005186Y002093
X006136Y002014
X00684Y002526
X007155Y002526
X007269Y003138
X00747Y002526
X009852Y004656
X009852Y004341
X009352Y004656
X009352Y004341
X008852Y004656
X008852Y004341
X00788Y005893
X007441Y005888
X007362Y004609
X006551Y005407
X006161Y00542
X006161Y00512
X005768Y00542
X005768Y00512
X005374Y00542
X005374Y00512
X005645Y006993
X006157Y006399
X006885Y007006
X0072Y007006
X007443Y00633
X007515Y007006
X007662Y006107
X007811Y007854
X00788Y00633
X008839Y007978
X013084Y007478
X013534Y007029
X014386Y007403
X015694Y007193
X016206Y006568
X016219Y008934
X015707Y009504
X014408Y009718
X013573Y009344
X01314Y009793
X009883Y009186
X009883Y008871
X009383Y009186
X009383Y008871
X008883Y009186
X008883Y008871
X00738Y009631
X007338Y009118
X006508Y009714
X006161Y009774
X006161Y009474
X005768Y009774
X005768Y009474
X005374Y009774
X005374Y009474
X016265Y011102
X015753Y011649
X014486Y011907
X013604Y011533
X013129Y011982
X007894Y010772
X007894Y010335
X007676Y010549
X007457Y010772
X007455Y01033
X007362Y011426
X007047Y011426
X006732Y011426
X006114Y010887
X005602Y011569
X002551Y011381
X002104Y010627
X001666Y010036
X001172Y010604
X000736Y011126
X000736Y01266
X001172Y013182
X001666Y013646
X002104Y013159
X007402Y012008
X007626Y012409
X007774Y013007
X00869Y012409
X008844Y013189
X008844Y013504
X009344Y013189
X009344Y013504
X009844Y013189
X009844Y013504
X007904Y015272
X007904Y014835
X007686Y015049
X007514Y015928
X007467Y015272
X007465Y01483
X007199Y015928
X006884Y015928
X00657Y014155
X006223Y014296
X006223Y013996
X006176Y01526
X00583Y014296
X00583Y013996
X005664Y015942
X005436Y014296
X005436Y013996
X007802Y01683
X008193Y017274
X008508Y016536
X008515Y017274
T02
X000538Y014117
X000538Y014904
T03
X003429Y003678
X003429Y005528
X003429Y007378
T04
X001978Y001564
X003552Y001564
M30
