G04 ================== begin FILE IDENTIFICATION RECORD ==================*
G04 Layout Name:  sophum_pro_power_v1.brd*
G04 Film Name:    TOP*
G04 File Format:  Gerber RS274X*
G04 File Origin:  Cadence Allegro 16.6-2015-S066*
G04 Origin Date:  Mon Jul 20 15:27:08 2020*
G04 *
G04 Layer:  VIA CLASS/TOP*
G04 Layer:  PIN/TOP*
G04 Layer:  ETCH/TOP*
G04 Layer:  BOARD GEOMETRY/OUTLINE*
G04 *
G04 Offset:    (0.00 0.00)*
G04 Mirror:    No*
G04 Mode:      Positive*
G04 Rotation:  0*
G04 FullContactRelief:  No*
G04 UndefLineWidth:     6.00*
G04 ================== end FILE IDENTIFICATION RECORD ====================*
%FSLAX55Y55*MOIN*%
%IR0*IPPOS*OFA0.00000B0.00000*MIA0B0*SFA1.00000B1.00000*%
%ADD15C,.02165*%
%ADD23R,.02008X.02008*%
%ADD19R,.00945X.02362*%
%ADD20R,.02362X.00945*%
%ADD18R,.06614X.06614*%
%ADD16C,.06299*%
%ADD10C,.09449*%
%ADD17R,.06299X.06299*%
%ADD11C,.10236*%
%ADD22R,.04488X.05*%
%ADD21R,.05X.04488*%
%ADD13R,.03543X.06417*%
%ADD14R,.07283X.01575*%
%ADD12R,.05118X.06693*%
%ADD25R,.03937X.02756*%
%ADD24R,.07874X.04724*%
%ADD26C,.02*%
%ADD27C,.03*%
%ADD28C,.022*%
%ADD29C,.025*%
%ADD30C,.018*%
%ADD31C,.006*%
%ADD32C,.008*%
%ADD33C,.1124*%
%ADD34C,.10452*%
G75*
%LPD*%
G75*
G36*
G01X74010Y12500D02*
Y8090D01*
X68270Y2350D01*
X29200D01*
X26860Y4690D01*
Y20930D01*
X29310Y23380D01*
X41700D01*
X48480Y16600D01*
X58680D01*
X59445Y15835D01*
Y14575D01*
X59710Y14310D01*
X62350D01*
X62600Y14060D01*
Y8520D01*
X63450Y7670D01*
X65990D01*
X66314Y7994D01*
X66331Y8005D01*
G03X66872Y8546I-1034J1575D01*
G01X66883Y8563D01*
X67420Y9100D01*
Y17270D01*
X68590Y18440D01*
X71970D01*
X72180Y18230D01*
Y12730D01*
X72280Y12630D01*
X73880D01*
X74010Y12500D01*
G37*
G36*
G01X51670Y33840D02*
X51610Y33900D01*
X46290D01*
X35630Y44560D01*
X29710D01*
X25970Y48300D01*
Y59850D01*
X26300Y60180D01*
X26380D01*
X28760Y62560D01*
X35810D01*
X51765Y46605D01*
X70185D01*
X74860Y41930D01*
X78550D01*
X80720Y39760D01*
Y34160D01*
X80400Y33840D01*
X51670D01*
G37*
G36*
G01X14680Y123310D02*
X14240Y123750D01*
Y125550D01*
X15480Y126790D01*
X22720D01*
X24250Y128320D01*
Y133780D01*
X19650Y138380D01*
X10400D01*
X8970Y136950D01*
X1720D01*
X1300Y137370D01*
Y143470D01*
X2310Y144480D01*
X2566D01*
G02X2844Y143792I0J-400D01*
G03X7916I2536J-2626D01*
G02X8194Y144480I278J288D01*
G01X32010D01*
X39080Y137410D01*
Y129590D01*
X32800Y123310D01*
X14680D01*
G37*
G36*
G01X50690Y49010D02*
X36165Y63535D01*
X33195D01*
X27280Y69450D01*
Y110520D01*
X40380Y123620D01*
Y138400D01*
X33220Y145560D01*
X17050D01*
X9720Y152890D01*
X3000D01*
X1720Y154170D01*
Y176130D01*
X19990Y194400D01*
X132640D01*
X143740Y183300D01*
Y122005D01*
X143360Y121625D01*
X131826D01*
X131800Y121632D01*
G03X130778I-511J-1813D01*
G01X130752Y121625D01*
X129660D01*
X129085Y121050D01*
Y114335D01*
X130105Y113315D01*
X136335D01*
X144550Y105100D01*
Y100590D01*
X143840Y99880D01*
X129190D01*
X128010Y98700D01*
Y91650D01*
X129200Y90460D01*
X142130D01*
X144550Y88040D01*
Y77470D01*
X143930Y76850D01*
X129790D01*
X129770Y76870D01*
X112980D01*
X110555Y79295D01*
Y168935D01*
X104070Y175420D01*
X67380D01*
X51690Y159730D01*
Y150530D01*
X52590Y149630D01*
X58970D01*
X59670Y148930D01*
Y147670D01*
X60220Y147120D01*
X62680D01*
X63840Y145960D01*
Y141865D01*
X63837Y141849D01*
G03Y141245I1860J-302D01*
G01X63840Y141229D01*
Y140050D01*
X64450Y139440D01*
X67530D01*
X67920Y139830D01*
Y150470D01*
X69540Y152090D01*
X72320D01*
X72772Y151638D01*
Y148444D01*
X72771Y148437D01*
G03Y148163I1879J-137D01*
G01X72772Y148156D01*
Y147312D01*
X71085Y145625D01*
Y136315D01*
X47140Y112370D01*
Y105890D01*
X52329Y100701D01*
G03X52670Y100843I141J142D01*
G01Y105200D01*
X52730Y105260D01*
X58360D01*
X58680Y104940D01*
Y103000D01*
X58960Y102720D01*
X62330D01*
X62670Y102380D01*
Y96170D01*
X63590Y95250D01*
X66570D01*
X67540Y96220D01*
Y106500D01*
X68250Y107210D01*
X69256D01*
Y107169D01*
X72211D01*
X72470Y106910D01*
Y101930D01*
X70935Y100395D01*
Y94635D01*
X54560Y78260D01*
Y78230D01*
X52500Y76170D01*
Y61930D01*
X53590Y60840D01*
X58840D01*
X59705Y59975D01*
Y58475D01*
X59970Y58210D01*
X62880D01*
X63260Y57830D01*
Y52610D01*
X63720Y52150D01*
X67390D01*
X68060Y52820D01*
Y62070D01*
X68760Y62770D01*
X72100D01*
X72390Y62480D01*
Y57080D01*
X72580Y56890D01*
X74070D01*
X74250Y56710D01*
Y50520D01*
X72740Y49010D01*
X50690D01*
G37*
G36*
G01X91360Y34120D02*
G02I-2000J0D01*
G37*
G36*
G01X89830Y23000D02*
Y28740D01*
X91620Y30530D01*
X99450D01*
X100820Y29160D01*
Y19650D01*
X97610Y16440D01*
X87100D01*
X83000Y12340D01*
X81670D01*
X80700Y13310D01*
Y18140D01*
X80850Y18290D01*
X85120D01*
X89830Y23000D01*
G37*
G36*
G01X98530Y41580D02*
X82780D01*
X81200Y43160D01*
Y52790D01*
X83390Y54980D01*
X99180D01*
X100440Y53720D01*
Y43490D01*
X98530Y41580D01*
G37*
G36*
G01X73290Y20630D02*
X72970Y20950D01*
Y20997D01*
X72923D01*
X72650Y21270D01*
X69510D01*
X66820Y23960D01*
Y26100D01*
X67020Y26300D01*
X76360D01*
X78135Y24525D01*
Y20705D01*
X78060Y20630D01*
X73290D01*
G37*
G36*
G01X98510Y1780D02*
X82960D01*
X82170Y2570D01*
Y9030D01*
X86900Y13760D01*
X98940D01*
X100510Y12190D01*
Y3780D01*
X98510Y1780D01*
G37*
G36*
G01X97166Y78610D02*
G02I-2000J0D01*
G37*
G36*
G01X81680Y56800D02*
X80764Y57716D01*
Y58655D01*
X80718Y58701D01*
Y62650D01*
X86910D01*
X89840Y65580D01*
Y70520D01*
X90370Y71050D01*
X98560D01*
X99510Y70100D01*
Y58170D01*
X98140Y56800D01*
X81680D01*
G37*
G36*
G01X78210Y65460D02*
X77760Y65010D01*
X73680D01*
X72705Y65985D01*
X68645D01*
X67670Y66960D01*
Y70760D01*
X68090Y71180D01*
X75880D01*
X76400Y70660D01*
X76420D01*
X78210Y68870D01*
Y65460D01*
G37*
G36*
G01X65720Y115240D02*
X65840Y115360D01*
X74060D01*
X74705Y114715D01*
X76505D01*
X78300Y112920D01*
Y109600D01*
X78060Y109360D01*
X73610D01*
X71230Y111740D01*
X66330D01*
X65720Y112350D01*
Y115240D01*
G37*
G36*
G01X98360Y129220D02*
X83850D01*
X81130Y131940D01*
Y141410D01*
X83590Y143870D01*
X99250D01*
X100660Y142460D01*
Y131520D01*
X98360Y129220D01*
G37*
G36*
G01X84900Y107750D02*
Y115160D01*
X85640Y115900D01*
X98610D01*
X100490Y114020D01*
Y105650D01*
X96420Y101580D01*
X81410D01*
X81000Y101990D01*
Y106900D01*
X81140Y107040D01*
X84190D01*
X84900Y107750D01*
G37*
G36*
G01X95676Y122920D02*
G02I-2000J0D01*
G37*
G36*
G01X99340Y86840D02*
X83010D01*
X81330Y88520D01*
Y95370D01*
X86040Y100080D01*
X99650D01*
X100590Y99140D01*
Y88090D01*
X99340Y86840D01*
G37*
G36*
G01X81460Y152140D02*
X85450D01*
X88830Y155520D01*
Y159770D01*
X89030Y159970D01*
X99630D01*
X101910Y157690D01*
Y152030D01*
X96500Y146620D01*
X81520D01*
X81210Y146930D01*
Y151890D01*
X81460Y152140D01*
G37*
G36*
G01X93930Y171566D02*
G02I-2000J0D01*
G37*
G36*
G01X66140Y160650D02*
X66580Y161090D01*
X75330D01*
X78515Y157905D01*
Y154545D01*
X78360Y154390D01*
X73840D01*
X73420Y154810D01*
X72980D01*
X70520Y157270D01*
X66810D01*
X66140Y157940D01*
Y160650D01*
G37*
%LPC*%
G75*
G54D33*
X35524Y15640D03*
G54D34*
X34290Y55280D03*
Y73784D03*
%LPD*%
G75*
G54D10*
X34290Y55280D03*
Y36776D03*
Y73784D03*
G54D11*
X19776Y15640D03*
X35524D03*
G54D20*
X70988Y13817D03*
Y15786D03*
Y17754D03*
Y19723D03*
X82012D03*
Y17754D03*
Y15786D03*
Y13817D03*
X71238Y102537D03*
Y104506D03*
Y106474D03*
Y108443D03*
X82262D03*
Y106474D03*
Y104506D03*
Y102537D03*
X71098Y58157D03*
Y60126D03*
Y62094D03*
Y64063D03*
X82122D03*
Y62094D03*
Y60126D03*
Y58157D03*
X71368Y147517D03*
Y149486D03*
Y151454D03*
Y153423D03*
X82392D03*
Y151454D03*
Y149486D03*
Y147517D03*
G54D30*
G01X18526Y113812D02*
X25512D01*
G01X134060Y97926D02*
X131396D01*
G01X133990Y74776D02*
X130836D01*
G01X134550Y119819D02*
X131289D01*
G01X140622Y119070D02*
X144860D01*
G01X140312Y97177D02*
X144077D01*
G01X139922Y74027D02*
X143857D01*
G01X156940Y74776D02*
Y71930D01*
G01X162059Y70327D02*
Y65680D01*
G01X157070Y97926D02*
Y95040D01*
G01X162189Y93477D02*
Y89341D01*
G01X157530Y119819D02*
Y116490D01*
G01X162649Y115370D02*
Y111021D01*
G54D12*
X7364Y106036D03*
Y131824D03*
G54D21*
X56240Y20927D03*
Y14313D03*
X56451Y64823D03*
Y58209D03*
X56020Y109347D03*
Y102733D03*
X56640Y153717D03*
Y147103D03*
X162059Y70327D03*
Y76941D03*
X162649Y115370D03*
Y121984D03*
X162189Y93477D03*
Y100091D03*
G54D31*
G01X2500Y0D02*
X197500D01*
G03X200000Y2500I0J2500D01*
G01Y197500D01*
G03X197500Y200000I-2500J0D01*
G01X2500D01*
G03X0Y197500I0J-2500D01*
G01Y2500D01*
G03X2500Y0I2500J0D01*
G54D13*
X16656Y106273D03*
Y131587D03*
G54D22*
X78393Y4870D03*
X85007D03*
X77773Y46090D03*
X84387D03*
X77503Y91180D03*
X84117D03*
X77743Y135590D03*
X84357D03*
G54D32*
G01X32050Y50029D02*
X34290Y55280D01*
G01X5380Y137314D02*
Y141166D01*
G01X3742Y137369D02*
X5380Y141166D01*
G01X32050Y68533D02*
X34290Y73784D01*
G01D02*
X36530Y79035D01*
G01X29039Y71544D02*
X34290Y73784D01*
G01D02*
X39541Y76024D01*
G01X29039D02*
X34290Y73784D01*
G01D02*
X39541Y71544D01*
G01X32050Y79035D02*
X34290Y73784D01*
G01D02*
X36530Y68533D01*
G01X34290Y55280D02*
X39717D01*
G01X34290D02*
X38327Y59317D01*
G01X34290Y55280D02*
X36530Y60531D01*
G01X29039Y53040D02*
X34290Y55280D01*
G01D02*
X39541Y57520D01*
G01X29039D02*
X34290Y55280D01*
G01D02*
X39541Y53040D01*
G01X1528Y141166D02*
X5380D01*
G01D02*
X8304Y144090D01*
G01X2456D02*
X5380Y141166D01*
G01X1583Y139528D02*
X5380Y141166D01*
G01D02*
X9177Y142804D01*
G01X1583D02*
X5380Y141166D01*
G01X82584Y35290D02*
X84680Y33194D01*
Y20310D01*
X84093Y19723D01*
X82012D01*
G01X65297Y16478D02*
Y18382D01*
X66638Y19723D01*
X70988D01*
G01X79370Y28156D02*
Y24446D01*
X79453Y24363D01*
Y22282D01*
G01X75626Y55598D02*
Y54214D01*
X76623Y53217D01*
X77516D01*
X84387Y46346D01*
G01D02*
Y46090D01*
G01X79453Y11258D02*
Y13817D01*
X76500Y16770D01*
G01X77484Y11258D02*
Y13022D01*
X76500Y14006D01*
Y16770D01*
G01X85007Y4870D02*
Y5126D01*
G01D02*
X81256Y8877D01*
X76513D01*
X75516Y9874D01*
Y11258D01*
G01X79563Y66622D02*
Y67330D01*
X82050Y69817D01*
Y72626D01*
G01X71238Y108443D02*
X66718D01*
X65077Y106802D01*
Y104898D01*
G01X85244Y79780D02*
Y65104D01*
X84203Y64063D01*
X82122D01*
G01X73797Y99978D02*
Y96307D01*
G01X77594Y55598D02*
Y57332D01*
X76610Y58316D01*
Y61110D01*
G01X79563Y55598D02*
Y58157D01*
X76610Y61110D01*
G01X77734Y99978D02*
Y101752D01*
X76760Y102726D01*
Y105490D01*
G01X79703Y99978D02*
Y102587D01*
X78940Y103350D01*
G01X75896Y144958D02*
Y142877D01*
X79483Y139290D01*
X80913D01*
X84357Y135846D01*
G01D02*
Y135590D01*
G01X83564Y124090D02*
Y112394D01*
X82262Y111092D01*
Y108443D01*
G01X83564Y124090D02*
Y125994D01*
X82648Y126910D01*
X76400D01*
X73927Y129383D01*
Y144958D01*
G01X84117Y91180D02*
Y91436D01*
G01D02*
X78943Y96610D01*
X77750D01*
X75766Y98594D01*
Y99978D01*
G01X79703Y111002D02*
Y114427D01*
X80228Y114952D01*
Y116856D01*
G01X71098Y64063D02*
X67073D01*
X65508Y62498D01*
Y60374D01*
G01X81958Y162136D02*
Y158815D01*
X79833Y156690D01*
Y155982D01*
G01X65697Y149268D02*
Y151670D01*
X67450Y153423D01*
X71368D01*
G01X85154Y169290D02*
X87560Y166884D01*
Y157883D01*
X83100Y153423D01*
X82392D01*
G01X77864Y144958D02*
Y146722D01*
X76860Y147726D01*
Y150490D01*
G01X79833Y144958D02*
Y147517D01*
X76880Y150470D01*
G54D14*
X18526Y113812D03*
Y116371D03*
Y118930D03*
Y121489D03*
Y124048D03*
G54D23*
X65297Y13250D03*
Y16478D03*
X61359D03*
Y13250D03*
X82584Y35290D03*
X79356D03*
X79370Y28156D03*
Y31384D03*
X75432D03*
Y28156D03*
X134060Y97926D03*
Y101154D03*
X133990Y74776D03*
Y78004D03*
X61570Y60374D03*
Y57146D03*
X61139Y104898D03*
Y101670D03*
X134550Y119819D03*
Y123047D03*
X65508Y57146D03*
Y60374D03*
X65077Y101670D03*
Y104898D03*
X85244Y79780D03*
X82016D03*
X83564Y124090D03*
X80336D03*
X82050Y72626D03*
Y75854D03*
X80228Y116856D03*
Y120084D03*
X78112Y75854D03*
Y72626D03*
X76290Y120084D03*
Y116856D03*
X61759Y149268D03*
Y146040D03*
X65697D03*
Y149268D03*
X85154Y169290D03*
X81926D03*
X78020Y165364D03*
Y162136D03*
X81958D03*
Y165364D03*
X157530Y119819D03*
Y123047D03*
X157070Y97926D03*
Y101154D03*
X156940Y74776D03*
Y78004D03*
G54D24*
X94750Y52076D03*
X94760Y11236D03*
Y26984D03*
X94750Y67824D03*
X94660Y97386D03*
Y113134D03*
X95240Y141256D03*
Y157004D03*
G54D15*
X7364Y111256D03*
X11716Y106036D03*
X21037Y106273D03*
X16656Y100356D03*
X7364Y126604D03*
X21037Y131587D03*
X16656Y136460D03*
X11716Y131824D03*
X25512Y113812D03*
X53740Y51200D03*
X57677D03*
X61614D03*
X88520Y43410D03*
X93520D03*
X98520D03*
Y46560D03*
X93520D03*
X88520D03*
X74700Y25260D03*
X71550D03*
X68400D03*
X76500Y16770D03*
X74290Y14580D03*
X78680Y14630D03*
Y19000D03*
X74310D03*
X72694Y31384D03*
X61359Y20140D03*
X51860Y20927D03*
X65297Y9580D03*
X74566Y4870D03*
X73620Y46090D03*
X89000Y4100D03*
X94000D03*
X99000D03*
Y7250D03*
X94000D03*
X89000D03*
X88390Y79780D03*
X73797Y96307D03*
X61614Y54200D03*
X57677D03*
X53740D03*
X61614Y94740D03*
X57677D03*
X53740D03*
Y97740D03*
X57677D03*
X61614D03*
X135340Y70287D03*
X135730Y93437D03*
X67320Y114260D03*
X70470D03*
X73620D03*
X76760Y105490D03*
X78940Y103350D03*
X74550Y103300D03*
X78940Y107720D03*
X74570D03*
X68850Y70060D03*
X72000D03*
X75150D03*
X74430Y63300D03*
X78800D03*
X74410Y58880D03*
X78800Y58930D03*
X76620Y61070D03*
X56451Y69930D03*
X61570Y63990D03*
X65508Y54072D03*
X78112Y78538D03*
X56020Y115690D03*
X61139Y108869D03*
X65077Y97137D03*
X73380Y91180D03*
X74024Y120084D03*
X77743Y130067D03*
X131396Y97926D03*
X130836Y74776D03*
X131289Y119819D03*
X88440Y135040D03*
X93440D03*
X98440D03*
Y131890D03*
X93440D03*
X88440D03*
X86900Y124090D03*
X88830Y88710D03*
X93830D03*
X98830D03*
Y91860D03*
X93830D03*
X88830D03*
X76260Y124090D03*
X62234Y139960D03*
X58297D03*
X54360D03*
Y142960D03*
X58297D03*
X62234D03*
X81926Y172736D03*
X85154D03*
X75140Y159280D03*
X71990D03*
X68840D03*
X74670Y152720D03*
X79040D03*
X74650Y148300D03*
X79040Y148350D03*
X76860Y150490D03*
X56640Y159420D03*
X61759Y152599D03*
X65697Y141547D03*
X78020Y168300D03*
X85080Y165364D03*
X136040Y115330D03*
X144860Y119070D03*
X144077Y97177D03*
X143857Y74027D03*
X156940Y71930D03*
X162059Y65680D03*
X157070Y95040D03*
X162189Y89341D03*
X157530Y116490D03*
X162649Y111021D03*
G54D25*
X150508Y100917D03*
Y93437D03*
X140312D03*
Y97177D03*
Y100917D03*
X150118Y77767D03*
Y70287D03*
X139922D03*
Y74027D03*
Y77767D03*
X150818Y122810D03*
Y115330D03*
X140622D03*
Y119070D03*
Y122810D03*
G54D16*
X5380Y141166D03*
G54D26*
G01X34290Y55280D02*
X30253Y51243D01*
G01X34290Y55280D02*
Y49853D01*
G01Y55280D02*
X38327Y51243D01*
G01X7364Y106036D02*
Y111256D01*
G01Y106036D02*
X11716D01*
G01X16656Y106273D02*
X21037D01*
G01X16656D02*
Y100356D01*
G01Y131587D02*
X21037D01*
G01X7364Y131824D02*
X11716D01*
G01X7364D02*
Y126604D01*
G01X16656Y131587D02*
Y136460D01*
G01X34290Y55280D02*
X28863D01*
G01X34290D02*
Y60707D01*
G01Y55280D02*
X30253Y59317D01*
G01X82584Y35290D02*
X87390D01*
X88440Y34240D01*
G01X75432Y28156D02*
X79370D01*
G01X75432Y31384D02*
X72694D01*
G01X61359Y20140D02*
Y16478D01*
G01X65297Y13250D02*
Y9580D01*
G01X78393Y4870D02*
X74566D01*
G01X77773Y46090D02*
X73620D01*
G01X79370Y31384D02*
Y33372D01*
X79356Y33386D01*
Y35290D01*
G01X94760Y11236D02*
X96335D01*
G01X79356Y37194D02*
Y35290D01*
G01X78112Y72626D02*
X82050D01*
G01X85244Y79780D02*
X88390D01*
G01X94246Y78730D02*
X93196Y79780D01*
X88390D01*
G01X82016D02*
Y77792D01*
X82050Y77758D01*
Y75854D01*
G01X94750Y52076D02*
X100187D01*
G01D02*
X102380Y54269D01*
Y80510D01*
X99920Y82970D01*
X83302D01*
X82016Y81684D01*
Y79780D01*
G01X61570Y60374D02*
Y63990D01*
G01X65508Y57146D02*
Y54072D01*
G01X78112Y75854D02*
Y78538D01*
G01X56451Y64823D02*
Y69930D01*
G01X56020Y109347D02*
Y115690D01*
G01X61139Y104898D02*
Y108869D01*
G01X65077Y101670D02*
Y97137D01*
G01X77503Y91180D02*
X73380D01*
G01X76290Y120084D02*
X74024D01*
G01X77743Y135590D02*
Y130067D01*
G01X83564Y124090D02*
X86900D01*
G01X92756Y123040D02*
X91706Y124090D01*
X86900D01*
G01X80228Y120084D02*
Y122078D01*
X80336Y122186D01*
Y124090D01*
G01D02*
X76260D01*
G01X76290Y116856D02*
X80228D01*
G01X78020Y162136D02*
X81958D01*
G01X81926Y169290D02*
Y172736D01*
G01X85154Y169290D02*
Y172736D01*
G01X91010Y171686D02*
X89960Y172736D01*
X85154D01*
G01X56640Y153717D02*
Y159420D01*
G01X61759Y149268D02*
Y152599D01*
G01X65697Y146040D02*
Y141547D01*
G01X78020Y165364D02*
Y168300D01*
G01X81958Y165364D02*
X85080D01*
G54D17*
X5380Y149040D03*
G54D27*
G01X56240Y20927D02*
X51860D01*
G54D18*
X76500Y16770D03*
X76750Y105490D03*
X76610Y61110D03*
X76880Y150470D03*
G54D28*
G01X156940Y78004D02*
X160996D01*
X162059Y76941D01*
G01X150118Y77767D02*
X154799D01*
X155036Y78004D01*
X156940D01*
G01X157070Y101154D02*
X161126D01*
X162189Y100091D01*
G01X150508Y100917D02*
X154929D01*
X155166Y101154D01*
X157070D01*
G01X139922Y70287D02*
X135340D01*
G01X140312Y93437D02*
X135730D01*
G01X140622Y115330D02*
X136040D01*
G01X157530Y123047D02*
X161586D01*
X162649Y121984D01*
G01X150818Y122810D02*
X155389D01*
X155626Y123047D01*
X157530D01*
G54D19*
X79453Y11258D03*
X77484D03*
X75516D03*
X73547D03*
Y22282D03*
X75516D03*
X77484D03*
X79453D03*
X79703Y99978D03*
X77734D03*
X75766D03*
X73797D03*
Y111002D03*
X75766D03*
X77734D03*
X79703D03*
X79563Y55598D03*
X77594D03*
X75626D03*
X73657D03*
Y66622D03*
X75626D03*
X77594D03*
X79563D03*
X79833Y144958D03*
X77864D03*
X75896D03*
X73927D03*
Y155982D03*
X75896D03*
X77864D03*
X79833D03*
G54D29*
G01X35524Y15640D02*
Y21460D01*
G01Y15640D02*
X39839Y19955D01*
G01X35524Y15640D02*
X41344D01*
G01X35524D02*
X39839Y11325D01*
G01X35524Y15640D02*
Y9820D01*
G01Y15640D02*
X31209Y11325D01*
G01X35524Y15640D02*
X29704D01*
G01X35524D02*
X31209Y19955D01*
G01X5380Y141166D02*
X8304Y138242D01*
G01X5380Y141166D02*
X2456Y138242D01*
G01X34290Y73784D02*
Y79211D01*
G01Y73784D02*
X38327Y77821D01*
G01X34290Y73784D02*
X39717D01*
G01X34290D02*
X38327Y69747D01*
G01X34290Y73784D02*
Y68357D01*
G01Y73784D02*
X30253Y69747D01*
G01X34290Y73784D02*
X28863D01*
G01X34290D02*
X30253Y77821D01*
G01X5380Y141166D02*
X9232D01*
G01X5380Y149040D02*
Y159330D01*
G01X5180Y149070D02*
X15470D01*
G01X5217Y148920D02*
X12493Y156196D01*
G01X96335Y11236D02*
X104270Y19171D01*
Y34040D01*
X99110Y39200D01*
X81362D01*
X79356Y37194D01*
M02*
